<svg width="128" height="128" viewBox="0 0 128 128" fill="none" xmlns="http://www.w3.org/2000/svg">
<path d="M110.321 35.0357L66.2853 9.61183C64.8712 8.79524 63.1264 8.79524 61.7124 9.61183L17.6785 35.0357C16.4898 35.7221 15.7559 36.9914 15.7559 38.3662V89.6336C15.7559 91.0084 16.4898 92.2777 17.6785 92.9641L61.7144 118.388C63.1285 119.205 64.8733 119.205 66.2873 118.388L110.323 92.9641C111.512 92.2777 112.246 91.0084 112.246 89.6336V38.3662C112.246 36.9914 111.512 35.7221 110.323 35.0357H110.321ZM107.555 40.4211L65.0449 114.051C64.7575 114.547 63.9988 114.344 63.9988 113.77V65.5576C63.9988 64.5943 63.4841 63.7032 62.6489 63.2195L20.8973 39.1145C20.4011 38.8272 20.6037 38.0685 21.1784 38.0685H106.199C107.406 38.0685 108.161 39.3771 107.557 40.4232H107.555V40.4211Z" fill="black"/>
</svg>
