<svg width="461" height="115" viewBox="0 0 461 115" fill="none" xmlns="http://www.w3.org/2000/svg">
<g clip-path="url(#clip0_10036_318)">
<path d="M191.127 64.7939C191.127 73.1575 194.958 77.0674 203.949 77.0674C212.94 77.0673 216.77 73.1595 216.771 64.7939V31.2568H228.184V67.1387C228.183 79.3333 220.445 87.0741 203.949 87.0742C187.454 87.0742 179.714 79.256 179.714 67.0615V31.2568H191.127V64.7939ZM375.856 30.3184C393.053 30.3186 403.923 41.3408 403.923 58.6182C403.923 75.8955 392.587 87.0742 375.388 87.0742C358.189 87.0742 347.321 75.8955 347.321 58.6182C347.321 41.3406 358.657 30.3184 375.856 30.3184ZM170.333 41.4199H152.508C142.892 41.4199 135.387 46.9707 135.387 58.6973C135.387 70.4238 142.892 75.9746 152.508 75.9746H170.333V86.1377H151.102C134.996 86.1377 123.583 76.6788 123.583 58.6992C123.583 40.7196 135.778 31.2609 151.883 31.2607V31.2568H170.333V41.4199ZM270.631 31.2568C280.952 31.2568 287.83 36.4937 287.83 46.8135L287.82 47.3789C287.61 53.2005 284.166 57.6636 279.621 59.6338V59.79C284.546 60.4944 287.049 64.0119 287.125 68.7812L287.359 86.1357H275.946L275.713 70.6582C275.635 67.2182 273.601 65.1074 269.537 65.1074H250.538V86.1357H239.127V31.2568H270.631ZM340.518 41.1045H313.312C309.404 41.1045 306.903 43.1379 306.902 47.0459C306.902 50.954 309.481 52.831 313.392 53.1445L326.29 54.2393C336.063 55.0984 342.473 59.5566 342.473 70.0312C342.473 80.506 335.672 86.1357 326.057 86.1357H296.818V76.2861H324.96C328.635 76.2861 330.979 73.7845 330.979 70.1104V70.1084C330.978 66.2005 328.478 64.5576 324.728 64.2461L312.062 63.0742C301.117 62.0584 295.409 57.7569 295.409 47.3594C295.409 36.9623 302.446 31.2549 312.53 31.2549H340.518V41.1045ZM443.32 31.2568C453.64 31.2568 460.519 36.4937 460.52 46.8135L460.509 47.3789C460.298 53.2005 456.856 57.6637 452.309 59.6338V59.79C457.235 60.4944 459.736 64.012 459.813 68.7812L460.049 86.1357H448.636L448.4 70.6582C448.325 67.2182 446.29 65.1075 442.227 65.1074H423.228V86.1357H411.814V31.2568H443.32ZM375.619 40.3252C365.848 40.3252 359.123 47.1254 359.123 58.6953C359.123 70.2651 365.848 77.0654 375.619 77.0654C385.392 77.0652 392.116 70.2649 392.116 58.6953C392.116 47.1256 385.392 40.3254 375.619 40.3252ZM250.538 55.6455H269.3C273.464 55.6455 276.164 53.2255 276.329 48.8086L276.337 48.377C276.337 43.6871 273.836 41.1064 269.146 41.1064H250.538V55.6455ZM423.228 55.6455H441.989C446.154 55.6454 448.854 53.2254 449.019 48.8086L449.026 48.377C449.026 43.6872 446.525 41.1066 441.834 41.1064H423.228V55.6455Z" fill="black"/>
<path d="M97.9405 28.7854L54.582 3.75268C53.1897 2.94865 51.4717 2.94865 50.0794 3.75268L6.7231 28.7854C5.55269 29.4612 4.83008 30.7109 4.83008 32.0645V82.5433C4.83008 83.8948 5.55269 85.1467 6.7231 85.8224L50.0815 110.855C51.4738 111.659 53.1918 111.659 54.5841 110.855L97.9424 85.8224C99.1129 85.1467 99.8355 83.8967 99.8355 82.5433V32.0645C99.8355 30.713 99.1129 29.4612 97.9424 28.7854H97.9405ZM95.217 34.0879L53.3607 106.585C53.0778 107.073 52.3308 106.874 52.3308 106.308V58.8376C52.3308 57.8891 51.8239 57.0117 51.0015 56.5354L9.8924 32.8014C9.40388 32.5186 9.60336 31.7714 10.1692 31.7714H93.8816C95.0704 31.7714 95.8134 33.0599 95.2189 34.09H95.217V34.0879Z" fill="black"/>
</g>
<defs>
<clipPath id="clip0_10036_318">
<rect width="460.53" height="114.45" fill="white"/>
</clipPath>
</defs>
</svg>
