<svg width="128" height="128" viewBox="0 0 128 128" fill="none" xmlns="http://www.w3.org/2000/svg">
<path d="M0 51.2C0 33.2783 0 24.3175 3.48779 17.4723C6.55574 11.4511 11.4511 6.55574 17.4723 3.48779C24.3175 0 33.2783 0 51.2 0H76.8C94.7217 0 103.683 0 110.528 3.48779C116.549 6.55574 121.444 11.4511 124.512 17.4723C128 24.3175 128 33.2783 128 51.2V76.8C128 94.7217 128 103.683 124.512 110.528C121.444 116.549 116.549 121.444 110.528 124.512C103.683 128 94.7217 128 76.8 128H51.2C33.2783 128 24.3175 128 17.4723 124.512C11.4511 121.444 6.55574 116.549 3.48779 110.528C0 103.683 0 94.7217 0 76.8V51.2Z" fill="black"/>
<path d="M38.5327 37.8559C49.5957 26.8103 65.8892 24.0247 79.4985 29.6205C82.5094 30.738 85.1339 32.3286 87.1812 33.8071L75.8169 39.0502C65.2357 34.6148 53.1136 37.6324 45.7153 45.0248C35.8671 54.8569 33.7549 71.7934 44.8755 82.9955L45.4058 83.5336L13.395 112.106C15.4252 109.312 17.9465 106.673 20.4585 104.035C27.5471 96.5905 34.5842 89.2151 30.2915 78.7885C24.545 64.8375 27.8913 48.4888 38.5327 37.8559ZM113.462 16.5551C102.924 31.0562 97.7795 38.1476 101.909 55.8891L101.883 55.8637C104.731 67.9405 101.685 81.3326 91.8521 91.1577C79.4555 103.553 59.6183 106.312 43.2817 95.1547L54.6714 89.8862C65.0977 93.9776 76.5054 92.1812 84.7036 83.9897C92.9021 75.7979 94.7431 63.866 90.6226 53.9379C89.8395 52.0554 87.4903 51.5835 85.8472 52.7953L52.3228 77.5248L100.343 29.3286V29.3715L114.21 15.5151C113.961 15.8675 113.712 16.2113 113.462 16.5551Z" fill="white"/>
</svg>
