<svg width="330" height="130" viewBox="0 0 330 130" fill="none" xmlns="http://www.w3.org/2000/svg">
<path d="M138.25 98.53C138.25 99.345 138.91 100 139.72 100H149.16C149.55 100 149.924 99.8452 150.199 99.5695C150.475 99.2938 150.63 98.9199 150.63 98.53V31.47C150.63 31.0802 150.475 30.7063 150.199 30.4306C149.924 30.1549 149.55 30 149.16 30H139.72C139.33 30 138.956 30.1549 138.681 30.4306C138.405 30.7063 138.25 31.0802 138.25 31.47V98.53ZM257.625 98.53C257.625 99.345 258.28 100 259.09 100H268.53C268.92 100 269.294 99.8452 269.569 99.5695C269.845 99.2938 270 98.9199 270 98.53V31.47C270 31.0802 269.845 30.7063 269.569 30.4306C269.294 30.1549 268.92 30 268.53 30H259.09C258.701 30.0014 258.328 30.1568 258.054 30.4323C257.779 30.7079 257.625 31.081 257.625 31.47V98.53ZM220.29 30C219.961 30.0006 219.643 30.1113 219.384 30.3143C219.126 30.5173 218.943 30.801 218.865 31.12L204.915 88.215C204.68 89.15 203.58 89.15 203.355 88.215L189.4 31.115C189.324 30.796 189.143 30.5121 188.885 30.3096C188.627 30.1071 188.308 29.9979 187.98 30H164.33C164.137 29.9993 163.947 30.037 163.769 30.1108C163.591 30.1847 163.43 30.2931 163.294 30.43C163.159 30.5668 163.052 30.7293 162.98 30.9078C162.908 31.0864 162.872 31.2775 162.875 31.47V98.53C162.875 99.345 163.525 100 164.34 100H174.825C175.017 100.002 175.207 99.966 175.385 99.894C175.562 99.822 175.724 99.7155 175.86 99.5807C175.996 99.4458 176.104 99.2853 176.178 99.1084C176.252 98.9315 176.29 98.7417 176.29 98.55V42.15C176.29 41.02 177.615 40.79 177.885 41.87L191.82 98.88C191.98 99.535 192.57 100 193.245 100H215.02C215.349 99.9994 215.667 99.8888 215.926 99.6858C216.184 99.4828 216.367 99.1991 216.445 98.88L230.375 41.88C230.64 40.795 231.965 41.03 231.965 42.155V98.53C231.965 99.345 232.625 100 233.435 100H243.915C244.305 100 244.679 99.8452 244.954 99.5695C245.23 99.2938 245.385 98.9199 245.385 98.53V31.47C245.385 31.0802 245.23 30.7063 244.954 30.4306C244.679 30.1549 244.305 30 243.915 30H220.29ZM93.485 62.455L121.945 32.48C122.142 32.2715 122.274 32.0098 122.324 31.7273C122.374 31.4447 122.341 31.1537 122.228 30.89C122.114 30.6263 121.926 30.4015 121.687 30.2434C121.448 30.0852 121.167 30.0006 120.88 30H107.63C107.24 30.0043 106.867 30.1603 106.59 30.435L73.97 63.3C73.465 63.81 72.715 63.355 72.715 62.535V31.47C72.715 31.0802 72.5601 30.7063 72.2844 30.4306C72.0088 30.1549 71.6349 30 71.245 30H61.47C61.277 30 61.0858 30.0381 60.9075 30.1119C60.7291 30.1858 60.5671 30.2941 60.4306 30.4306C60.2941 30.5671 60.1858 30.7291 60.1119 30.9075C60.038 31.0858 60 31.277 60 31.47V98.53C60 99.345 60.66 100 61.47 100H71.245C71.6349 100 72.0088 99.8452 72.2844 99.5695C72.5601 99.2938 72.715 98.9199 72.715 98.53V85.16C72.7084 84.8779 72.8104 84.604 73 84.395L83.065 74.135C83.31 73.885 83.645 73.85 83.915 74.035L110.84 94.385C114.78 97.115 119.79 98.895 124.385 99.645C124.588 99.6764 124.796 99.663 124.993 99.6057C125.191 99.5484 125.373 99.4486 125.528 99.3133C125.683 99.178 125.806 99.0105 125.889 98.8225C125.973 98.6345 126.014 98.4306 126.01 98.225V86.11C126.005 85.7598 125.881 85.4218 125.657 85.1524C125.433 84.8831 125.123 84.6987 124.78 84.63C122.12 84.06 119.155 82.975 116.91 81.42L93.6 64.085C93.12 63.75 93.055 62.895 93.485 62.455Z" fill="black"/>
</svg>
